<svg width="20" height="21" viewBox="0 0 20 21" fill="none" xmlns="http://www.w3.org/2000/svg">
<path d="M19 10.5C19 15.4706 14.9706 19.5 10 19.5C5.02944 19.5 1 15.4706 1 10.5C1 5.52944 5.02944 1.5 10 1.5C14.9706 1.5 19 5.52944 19 10.5ZM2.35 10.5C2.35 14.725 5.77502 18.15 10 18.15C14.225 18.15 17.65 14.725 17.65 10.5C17.65 6.27502 14.225 2.85 10 2.85C5.77502 2.85 2.35 6.27502 2.35 10.5Z" fill="#FF7A00" stroke="#FF7A00" stroke-width="0.5"/>
<path d="M9.7563 14.7841V5.69318H10.3387V14.7841H9.7563ZM11.301 8.69389C11.2726 8.40743 11.1507 8.1849 10.9353 8.02628C10.7198 7.86766 10.4275 7.78835 10.0581 7.78835C9.8072 7.78835 9.59532 7.82386 9.4225 7.89489C9.24967 7.96354 9.1171 8.05942 9.02477 8.18253C8.93481 8.30563 8.88983 8.44531 8.88983 8.60156C8.88509 8.73177 8.91232 8.84541 8.9715 8.94247C9.03306 9.03954 9.1171 9.12358 9.22363 9.1946C9.33017 9.26326 9.45327 9.32363 9.59295 9.37571C9.73263 9.42543 9.88178 9.46804 10.0404 9.50355L10.6938 9.6598C11.011 9.73082 11.3022 9.82552 11.5674 9.94389C11.8325 10.0623 12.0622 10.2079 12.2563 10.3807C12.4504 10.5535 12.6008 10.7571 12.7073 10.9915C12.8162 11.2259 12.8718 11.4946 12.8742 11.7976C12.8718 12.2427 12.7582 12.6286 12.5333 12.9553C12.3108 13.2796 11.9888 13.5317 11.5674 13.7116C11.1483 13.8892 10.6429 13.978 10.051 13.978C9.46393 13.978 8.95256 13.888 8.51696 13.7081C8.08372 13.5282 7.74518 13.2618 7.50133 12.9091C7.25985 12.554 7.1332 12.1148 7.12136 11.5916H8.60929C8.62586 11.8355 8.6957 12.0391 8.8188 12.2024C8.94428 12.3634 9.11118 12.4853 9.31951 12.5682C9.53021 12.6487 9.76814 12.6889 10.0333 12.6889C10.2937 12.6889 10.5198 12.651 10.7116 12.5753C10.9057 12.4995 11.056 12.3942 11.1626 12.2592C11.2691 12.1243 11.3224 11.9692 11.3224 11.794C11.3224 11.6307 11.2738 11.4934 11.1768 11.3821C11.0821 11.2708 10.9424 11.1761 10.7577 11.098C10.5754 11.0199 10.3517 10.9489 10.0866 10.8849L9.29466 10.6861C8.68149 10.5369 8.19735 10.3037 7.84224 9.98651C7.48713 9.66927 7.31075 9.24195 7.31312 8.70455C7.31075 8.2642 7.42794 7.8795 7.66468 7.55043C7.90379 7.22135 8.23168 6.96449 8.64835 6.77983C9.06502 6.59517 9.5385 6.50284 10.0688 6.50284C10.6086 6.50284 11.0797 6.59517 11.4822 6.77983C11.887 6.96449 12.2019 7.22135 12.4268 7.55043C12.6517 7.8795 12.7677 8.26065 12.7748 8.69389H11.301Z" fill="#FF7A00"/>
</svg>
