<svg width="20" height="21" viewBox="0 0 20 21" fill="none" xmlns="http://www.w3.org/2000/svg">
<path d="M19 10.5C19 15.4706 14.9706 19.5 10 19.5C5.02944 19.5 1 15.4706 1 10.5C1 5.52944 5.02944 1.5 10 1.5C14.9706 1.5 19 5.52944 19 10.5ZM2.35 10.5C2.35 14.725 5.77502 18.15 10 18.15C14.225 18.15 17.65 14.725 17.65 10.5C17.65 6.27502 14.225 2.85 10 2.85C5.77502 2.85 2.35 6.27502 2.35 10.5Z" fill="#1AB250" stroke="#1AB250" stroke-width="0.5"/>
<path d="M10 7.00005V14" stroke="#1AB250" stroke-width="1.2" stroke-linecap="round" stroke-linejoin="round"/>
<path d="M13.5 10.5L10 14L6.5 10.5" stroke="#1AB250" stroke-width="1.2" stroke-linecap="round" stroke-linejoin="round"/>
</svg>
