<svg width="18" height="18" viewBox="0 0 18 18" fill="none" xmlns="http://www.w3.org/2000/svg">
<path fill-rule="evenodd" clip-rule="evenodd" d="M12.2957 9.27598C12.2957 7.71929 11.0825 6.17402 9.19374 6.17402C7.66839 6.17402 6.91448 7.30304 6.59319 7.90344H7.54667C7.69826 7.90344 7.82118 8.02635 7.82118 8.17795C7.82118 8.32956 7.69826 8.45246 7.54667 8.45246H5.89962C5.74803 8.45246 5.62511 8.32956 5.62511 8.17795V6.5309C5.62511 6.37929 5.74803 6.25639 5.89962 6.25639C6.0512 6.25639 6.17413 6.37929 6.17413 6.5309V7.52637C6.56091 6.84453 7.45559 5.625 9.19374 5.625C11.4243 5.625 12.8447 7.4562 12.8447 9.27598C12.8447 11.0958 11.4243 12.927 9.19374 12.927C8.12654 12.927 7.23802 12.5047 6.60538 11.861C6.26663 11.5163 6.00212 11.1092 5.82176 10.6709C5.76406 10.5307 5.83093 10.3703 5.9711 10.3126C6.11132 10.2549 6.27174 10.3218 6.32944 10.462C6.48361 10.8366 6.70936 11.1836 6.99694 11.4761C7.53048 12.0191 8.27959 12.378 9.19374 12.378C11.0825 12.378 12.2957 10.8327 12.2957 9.27598Z" fill="#9747FF" stroke="#9747FF" stroke-width="0.6"/>
<mask id="path-2-inside-1_79_515" fill="white">
<path d="M18 9C18 13.9706 13.9706 18 9 18C4.02944 18 0 13.9706 0 9C0 4.02944 4.02944 0 9 0C13.9706 0 18 4.02944 18 9ZM1.35 9C1.35 13.225 4.77502 16.65 9 16.65C13.225 16.65 16.65 13.225 16.65 9C16.65 4.77502 13.225 1.35 9 1.35C4.77502 1.35 1.35 4.77502 1.35 9Z"/>
</mask>
<path d="M18 9C18 13.9706 13.9706 18 9 18C4.02944 18 0 13.9706 0 9C0 4.02944 4.02944 0 9 0C13.9706 0 18 4.02944 18 9ZM1.35 9C1.35 13.225 4.77502 16.65 9 16.65C13.225 16.65 16.65 13.225 16.65 9C16.65 4.77502 13.225 1.35 9 1.35C4.77502 1.35 1.35 4.77502 1.35 9Z" fill="#9747FF" stroke="#9747FF" stroke-width="2.4" mask="url(#path-2-inside-1_79_515)"/>
</svg>
